<svg id="visual" viewBox="0 0 960 540" width="960" height="540" xmlns="http://www.w3.org/2000/svg" xmlns:xlink="http://www.w3.org/1999/xlink" version="1.1"><rect x="0" y="0" width="960" height="540" fill="#191825"></rect><defs><linearGradient id="grad1_0" x1="43.8%" y1="0%" x2="100%" y2="100%"><stop offset="14.444444444444446%" stop-color="#865dff" stop-opacity="1"></stop><stop offset="85.55555555555554%" stop-color="#865dff" stop-opacity="1"></stop></linearGradient></defs><defs><linearGradient id="grad1_1" x1="43.8%" y1="0%" x2="100%" y2="100%"><stop offset="14.444444444444446%" stop-color="#865dff" stop-opacity="1"></stop><stop offset="85.55555555555554%" stop-color="#191825" stop-opacity="1"></stop></linearGradient></defs><defs><linearGradient id="grad2_0" x1="0%" y1="0%" x2="56.3%" y2="100%"><stop offset="14.444444444444446%" stop-color="#865dff" stop-opacity="1"></stop><stop offset="85.55555555555554%" stop-color="#865dff" stop-opacity="1"></stop></linearGradient></defs><defs><linearGradient id="grad2_1" x1="0%" y1="0%" x2="56.3%" y2="100%"><stop offset="14.444444444444446%" stop-color="#191825" stop-opacity="1"></stop><stop offset="85.55555555555554%" stop-color="#865dff" stop-opacity="1"></stop></linearGradient></defs><g transform="translate(960, 0)"><path d="M0 486C-42.8 459 -85.7 431.9 -137.2 422.3C-188.7 412.6 -248.9 420.3 -285.7 393.2C-322.4 366.1 -335.6 304.1 -352.7 256.3C-369.8 208.5 -390.9 174.8 -413.7 134.4C-436.6 94.1 -461.3 47 -486 0L0 0Z" fill="#443c8d"></path><path d="M0 243C-21.4 229.5 -42.8 216 -68.6 211.1C-94.4 206.3 -124.5 210.2 -142.8 196.6C-161.2 183 -167.8 152 -176.4 128.1C-184.9 104.2 -195.4 87.4 -206.9 67.2C-218.3 47 -230.6 23.5 -243 0L0 0Z" fill="#865dff"></path></g><g transform="translate(0, 540)"><path d="M0 -486C51.9 -483.7 103.9 -481.5 150.2 -462.2C196.5 -443 237.2 -406.7 266.3 -366.5C295.4 -326.3 312.9 -282.1 335.7 -243.9C358.6 -205.8 386.8 -173.8 412.8 -134.1C438.7 -94.5 462.3 -47.2 486 0L0 0Z" fill="#443c8d"></path><path d="M0 -243C26 -241.9 51.9 -240.7 75.1 -231.1C98.2 -221.5 118.6 -203.4 133.1 -183.2C147.7 -163.1 156.4 -141 167.9 -122C179.3 -102.9 193.4 -86.9 206.4 -67.1C219.3 -47.2 231.2 -23.6 243 0L0 0Z" fill="#865dff"></path></g></svg>